<?xml version="1.0" encoding="UTF-8" standalone="no"?>
<!-- Created with Inkscape (http://www.inkscape.org/) -->

<svg
   xmlns:dc="http://purl.org/dc/elements/1.1/"
   xmlns:cc="http://creativecommons.org/ns#"
   xmlns:rdf="http://www.w3.org/1999/02/22-rdf-syntax-ns#"
   xmlns:svg="http://www.w3.org/2000/svg"
   xmlns="http://www.w3.org/2000/svg"
   xmlns:sodipodi="http://sodipodi.sourceforge.net/DTD/sodipodi-0.dtd"
   xmlns:inkscape="http://www.inkscape.org/namespaces/inkscape"
   width="210mm"
   height="297mm"
   viewBox="0 0 744.09448819 1052.3622047"
   id="svg2"
   version="1.1"
   inkscape:version="0.91 r13725"
   sodipodi:docname="acorn.svg">
  <defs
     id="defs4" />
  <sodipodi:namedview
     id="base"
     pagecolor="#ffffff"
     bordercolor="#666666"
     borderopacity="1.0"
     inkscape:pageopacity="0.0"
     inkscape:pageshadow="2"
     inkscape:zoom="0.35"
     inkscape:cx="460.22847"
     inkscape:cy="520"
     inkscape:document-units="px"
     inkscape:current-layer="layer1"
     showgrid="false"
     inkscape:window-width="783"
     inkscape:window-height="605"
     inkscape:window-x="26"
     inkscape:window-y="26"
     inkscape:window-maximized="0" />
  <metadata
     id="metadata7">
    <rdf:RDF>
      <cc:Work
         rdf:about="">
        <dc:format>image/svg+xml</dc:format>
        <dc:type
           rdf:resource="http://purl.org/dc/dcmitype/StillImage" />
        <dc:title></dc:title>
      </cc:Work>
    </rdf:RDF>
  </metadata>
  <g
     inkscape:label="Layer 1"
     inkscape:groupmode="layer"
     id="layer1">
    <path
       inkscape:connector-curvature="0"
       id="path3379"
       d="m 307.85714,398.07651 0,-73.75 90,0 90,0 0,73.75 0,73.75 -90,0 -90,0 0,-73.75 z"
       style="fill:#fdfcfc" />
    <path
       inkscape:connector-curvature="0"
       id="path3377"
       d="m 392.85714,461.9879 c -2.40625,-1.37189 -5.78125,-3.13282 -7.5,-3.91318 -19.42145,-8.81788 -26.23986,-13.24685 -32.10927,-20.85694 -6.02802,-7.81573 -7.05926,-8.35964 -15.02855,-7.92642 -6.30684,0.34284 -13.85963,-7.39746 -15.84274,-16.23606 -0.84577,-3.76959 -1.32365,-7.83817 -1.06195,-9.04129 0.63193,-2.9052 5.34517,-2.82434 11.60289,0.19906 l 4.93962,2.38657 0,-10.01864 c 0,-17.78496 5.491,-31.93904 15.95473,-41.12632 6.23883,-5.47776 11.80738,-7.53904 23.42027,-8.66937 5.5,-0.53534 13.905,-2.14568 18.67777,-3.57854 6.62041,-1.98756 12.25114,-2.62306 23.75,-2.6805 17.36607,-0.0867 25.26228,1.18884 36.09062,5.83026 4.25238,1.82273 11.10661,3.65851 15.23161,4.07951 l 7.5,0.76547 -0.20149,5 c -0.79207,19.65566 -3.2738,40.94848 -5.58827,47.94638 -4.2392,12.81739 -11.51727,22.2224 -23.35371,30.17862 -6.01717,4.04461 -11.58849,8.93346 -13.53272,11.875 -1.81762,2.75 -4.49031,6.3213 -5.93929,7.93624 -7.80225,8.69577 -28.00872,12.98181 -37.00952,7.85015 z"
       style="fill:#ecdb99" />
    <path
       inkscape:connector-curvature="0"
       id="path3375"
       d="m 396.83797,463.1583 c -2.27929,-0.57719 -5.37304,-2.19628 -6.875,-3.59795 -1.50196,-1.40169 -4.41833,-2.94563 -6.48083,-3.431 -2.0625,-0.48537 -8.27622,-3.32275 -13.80826,-6.3053 -7.99529,-4.3106 -11.40471,-7.10305 -16.62306,-13.615 l -6.56479,-8.19217 -6.8274,0.2231 c -6.47845,0.2117 -7.04888,-0.0263 -11.16129,-4.65769 -4.86698,-5.48113 -7.31935,-11.85804 -6.6887,-17.39269 0.53963,-4.73592 3.11071,-5.23689 9.94082,-1.93694 6.8919,3.32981 7.4317,3.25647 6.60105,-0.89678 -0.38177,-1.90884 -0.10376,-8.75839 0.6178,-15.22122 1.53146,-13.71696 5.19091,-22.31611 12.68678,-29.81198 7.0688,-7.0688 12.34217,-9.14937 26.07952,-10.28945 6.59864,-0.54764 14.9305,-1.69764 18.51525,-2.55556 5.58836,-1.33744 7.43574,-1.26336 12.95604,0.51949 3.54108,1.14364 7.71111,2.07935 9.26673,2.07935 1.55562,0 3.46811,0.7708 4.24998,1.7129 3.10333,3.73928 29.11659,5.47543 33.0558,2.20618 1.2567,-1.04298 2.8975,-1.31958 4.25032,-0.71652 1.21187,0.54023 5.57841,1.30629 9.70341,1.70234 7.07081,0.67889 7.48457,0.89893 7.23035,3.8451 -0.1483,1.71875 -0.79933,11.5625 -1.4467,21.875 -1.83974,29.30614 -8.21405,42.14788 -27.26491,54.92813 -5.54234,3.71806 -9.76405,7.91812 -13.72438,13.65399 -4.73481,6.85756 -7.04115,8.93463 -13.39311,12.06169 -8.21361,4.04355 -17.58006,5.51354 -24.29542,3.81298 z"
       style="fill:#f4d761" />
    <path
       inkscape:connector-curvature="0"
       id="path3373"
       d="m 396.83797,463.1583 c -2.27929,-0.57719 -5.37304,-2.19628 -6.875,-3.59795 -1.50196,-1.40169 -4.41833,-2.94563 -6.48083,-3.431 -2.0625,-0.48537 -8.27622,-3.32275 -13.80826,-6.3053 -7.99529,-4.3106 -11.40471,-7.10305 -16.62306,-13.615 l -6.56479,-8.19217 -6.8274,0.2231 c -6.47845,0.2117 -7.04888,-0.0263 -11.16129,-4.65769 -4.86698,-5.48113 -7.31935,-11.85804 -6.6887,-17.39269 0.53963,-4.73592 3.11071,-5.23689 9.94082,-1.93694 6.8919,3.32981 7.4317,3.25647 6.60105,-0.89678 -0.38177,-1.90884 -0.10376,-8.75839 0.6178,-15.22122 1.53146,-13.71696 5.19091,-22.31611 12.68678,-29.81198 7.08652,-7.08652 12.3885,-9.17734 26.10696,-10.29518 l 11.97009,-0.97537 12.5,5.60594 c 20.84323,9.34769 27.5118,11.54278 39.49153,12.99937 15.03033,1.82751 21.29177,0.27517 25.98026,-6.44102 3.00783,-4.30868 6.91745,-6.74218 8.88161,-5.52826 0.437,0.27008 0.38685,3.75857 -0.1115,7.7522 -0.4983,3.99363 -0.95346,12.34609 -1.01148,18.56103 -0.22847,24.47682 -8.72876,41.22897 -27.21173,53.62825 -5.54234,3.71806 -9.76405,7.91812 -13.72438,13.65399 -4.73481,6.85756 -7.04115,8.93463 -13.39311,12.06169 -8.21361,4.04355 -17.58006,5.51354 -24.29542,3.81298 z"
       style="fill:#cbb29a" />
    <path
       inkscape:connector-curvature="0"
       id="path3371"
       d="m 396.82132,461.83632 c -2.28844,-0.54135 -4.96102,-2.12674 -5.93905,-3.52306 -0.97803,-1.39634 -3.60566,-2.92684 -5.83918,-3.40111 -2.23352,-0.47428 -8.89626,-3.34355 -14.80608,-6.37617 -7.95854,-4.08392 -11.7382,-6.88452 -14.57444,-10.79916 -7.46016,-10.2967 -8.82711,-11.26118 -14.97799,-10.56788 -4.90045,0.55235 -6.08779,0.16359 -10.00507,-3.27582 -5.14423,-4.5167 -7.82237,-10.13205 -7.82237,-16.40146 0,-5.19757 1.15504,-5.44202 8.63583,-1.8277 6.90391,3.33561 9.2273,2.52197 8.23432,-2.88363 -1.17159,-6.37793 1.50976,-25.65001 4.39914,-31.61868 3.99742,-8.25757 11.66354,-16.17575 18.51401,-19.12273 3.44588,-1.48238 10.93008,-3.09697 17.10145,-3.68935 l 10.97396,-1.05337 12.00814,5.48797 c 19.79169,9.04521 26.95047,11.40823 38.99968,12.87327 15.03033,1.82751 21.29177,0.27517 25.98026,-6.44102 3.18623,-4.56425 7.41481,-6.98068 9.03217,-5.16147 0.4384,0.49311 0.0624,4.27156 -0.83569,8.39656 -0.89801,4.125 -1.66887,12.64387 -1.71302,18.93083 -0.16709,23.7985 -9.43653,41.29744 -27.77779,52.43916 -5.16211,3.13582 -8.85412,6.67711 -12.39051,11.88467 -9.12491,13.43703 -23.05231,19.4764 -37.19777,16.13015 z"
       style="fill:#efc737" />
    <path
       inkscape:connector-curvature="0"
       id="path3369"
       d="m 396.82132,461.83632 c -2.28844,-0.54135 -4.96102,-2.12674 -5.93905,-3.52306 -0.97803,-1.39634 -3.60566,-2.92684 -5.83918,-3.40111 -2.23352,-0.47428 -8.89626,-3.34355 -14.80608,-6.37617 -7.95854,-4.08392 -11.7382,-6.88452 -14.57444,-10.79916 -7.46016,-10.2967 -8.82711,-11.26118 -14.97799,-10.56788 -4.90045,0.55235 -6.08779,0.16359 -10.00507,-3.27582 -5.14423,-4.5167 -7.82237,-10.13205 -7.82237,-16.40146 0,-5.19757 1.15504,-5.44202 8.63583,-1.8277 6.90391,3.33561 9.2273,2.52197 8.23432,-2.88363 -1.17159,-6.37793 1.50976,-25.65001 4.39914,-31.61868 3.99742,-8.25757 11.66354,-16.17575 18.51401,-19.12273 6.94742,-2.98871 27.70589,-5.53195 27.7339,-3.39785 0.01,0.72074 3.1718,2.31256 7.02741,3.53736 9.64065,3.06254 24.70545,12.34098 32.95539,20.29729 7.57809,7.30838 8.91835,7.55597 23.125,4.27182 12.29062,-2.84121 24.09054,-14.84447 21.42404,-21.79323 -0.72225,-1.88215 1.09117,-2.70233 2.079,-0.9403 0.28906,0.51562 -0.20413,4.3125 -1.09598,8.4375 -0.89185,4.125 -1.65766,12.64387 -1.70181,18.93083 -0.16709,23.7985 -9.43653,41.29744 -27.77779,52.43916 -5.16211,3.13582 -8.85412,6.67711 -12.39051,11.88467 -9.12491,13.43703 -23.05231,19.4764 -37.19777,16.13015 z"
       style="fill:#d5aa59" />
    <path
       inkscape:connector-curvature="0"
       id="path3367"
       d="m 396.82132,461.9049 c -2.28844,-0.57908 -4.96102,-2.19532 -5.93905,-3.59164 -0.97803,-1.39634 -3.60566,-2.92684 -5.83918,-3.40111 -2.23352,-0.47428 -8.89626,-3.34355 -14.80608,-6.37617 -7.95854,-4.08392 -11.7382,-6.88452 -14.57444,-10.79916 -7.46016,-10.2967 -8.82711,-11.26118 -14.97799,-10.56788 -4.90045,0.55235 -6.08779,0.16359 -10.00507,-3.27582 -5.14423,-4.5167 -7.82237,-10.13205 -7.82237,-16.40146 0,-5.19377 1.15664,-5.44125 8.60706,-1.8416 2.92965,1.41545 5.9214,2.37529 6.64834,2.13298 0.77076,-0.25692 1.48836,-5.53687 1.7215,-12.66657 0.21988,-6.7243 1.25937,-15.13727 2.30997,-18.69548 2.18168,-7.38903 9.48992,-17.62439 15.45385,-21.64348 5.10384,-3.43948 19.6902,-5.96317 29.38487,-5.08409 10.82668,0.98173 31.35428,11.54785 42.1082,21.67423 7.54261,7.10247 8.50885,7.63521 13.14121,7.24543 12.5869,-1.05912 22.67952,-5.25937 27.79959,-11.56935 0.85226,-1.05035 1.90751,-1.55179 2.34497,-1.11432 0.43748,0.43747 0.86516,7.7089 0.95043,16.15875 0.14337,14.20996 -0.10763,15.98311 -3.34247,23.61861 -4.17111,9.84532 -13.73622,21.03102 -23.11353,27.02961 -3.68854,2.35953 -8.49125,6.86557 -10.6727,10.01341 -7.02898,10.14284 -9.58232,12.63846 -16.28691,15.91871 -7.24354,3.54393 -16.65928,4.86367 -23.0902,3.2364 z"
       style="fill:#b38c65" />
    <path
       inkscape:connector-curvature="0"
       id="path3365"
       d="m 396.85229,461.00615 c -1.58391,-0.34164 -3.37707,-1.92898 -3.9848,-3.5274 -0.81083,-2.13267 -2.46068,-3.13529 -6.19826,-3.76675 -2.80133,-0.47328 -10.00817,-3.32972 -16.01521,-6.34764 -9.24939,-4.64687 -11.78325,-6.62803 -16.54688,-12.93759 -5.89168,-7.8037 -9.45087,-9.66317 -15.56084,-8.12967 -6.16354,1.54695 -15.65236,-10.4232 -15.68219,-19.78309 -0.009,-2.84312 2.0867,-2.76245 8.11803,0.3125 8.88635,4.53052 9.375,4.06518 9.375,-8.92773 0,-21.7245 7.46206,-36.83058 21.82148,-44.17507 6.69113,-3.42235 8.48836,-3.7722 19.37826,-3.7722 l 12.00312,0 13.69486,6.875 c 9.7901,4.91476 16.01612,9.06081 21.83607,14.54114 8.99085,8.46621 10.10557,8.71106 24.39121,5.35753 5.97825,-1.40339 16.875,-7.93212 16.875,-10.11057 0,-0.57096 0.6072,-1.0381 1.34934,-1.0381 0.91931,0 1.2025,5.07908 0.88859,15.9375 -0.37218,12.87407 -1.00399,17.30508 -3.28697,23.05235 -4.27402,10.75961 -12.07622,20.40284 -21.66556,26.77781 -5.86858,3.90142 -10.35696,8.26253 -14.82269,14.40235 -5.17537,7.11549 -7.70618,9.40203 -13.18028,11.90815 -6.64802,3.04358 -17.09279,4.57975 -22.78728,3.35148 z"
       style="fill:#da9228" />
    <path
       inkscape:connector-curvature="0"
       id="path3363"
       d="m 396.85229,461.00615 c -1.58391,-0.34164 -3.37707,-1.92898 -3.9848,-3.5274 -0.81083,-2.13267 -2.46068,-3.13529 -6.19826,-3.76675 -2.80133,-0.47328 -10.00817,-3.32972 -16.01521,-6.34764 -9.24939,-4.64687 -11.78325,-6.62803 -16.54688,-12.93759 -5.89168,-7.8037 -9.45087,-9.66317 -15.56084,-8.12967 -6.16354,1.54695 -15.65236,-10.4232 -15.68219,-19.78309 -0.009,-2.84312 2.0867,-2.76245 8.11803,0.3125 8.89962,4.53729 9.37369,4.07948 9.38455,-9.0625 0.0113,-13.71274 2.79302,-24.16821 8.72313,-32.78733 4.50179,-6.54313 13.84947,-13.15017 18.60494,-13.15017 l 3.09816,0 -2.71789,2.89306 c -5.86492,6.24292 -1.79506,18.06291 9.96982,28.95512 7.75134,7.17637 9.04593,7.60017 15.26904,4.99847 1.95648,-0.81794 2.19766,-0.55235 1.49856,1.65032 -1.00006,3.15092 3.33529,8.1211 6.54469,7.50303 3.59279,-0.69191 3.05898,-4.33452 -1.22145,-8.33493 -3.01323,-2.81611 -3.73614,-4.20748 -2.71606,-5.22756 1.02009,-1.02009 2.72789,-0.70756 6.41645,1.1742 4.16551,2.12509 5.26602,2.27552 6.42559,0.87833 0.97854,-1.17908 1.02097,-2.6808 0.1411,-4.99503 -1.51582,-3.98691 -4.40484,-5.33293 -6.93655,-3.2318 -1.59022,1.31977 -1.86483,0.84286 -1.89883,-3.29765 -0.0219,-2.66231 -0.86562,-5.93245 -1.875,-7.26697 -1.00939,-1.33453 -1.83525,-3.46947 -1.83525,-4.74432 0,-1.27485 -1.34659,-3.6645 -2.99242,-5.31033 -1.64584,-1.64583 -2.74377,-3.24108 -2.43985,-3.545 1.46762,-1.46763 12.12344,2.68169 21.52668,8.38238 8.31692,5.04211 12.04337,8.33849 18.125,16.0332 7.25699,9.18182 7.91593,9.6868 12.65559,9.6986 5.99305,0.0149 15.9859,-4.41134 22.12176,-9.7987 2.45205,-2.15293 4.86019,-3.91442 5.35142,-3.91442 0.49123,0 0.66276,5.20312 0.38116,11.5625 -0.87963,19.8655 -9.16628,34.9662 -24.94394,45.45516 -5.86858,3.90142 -10.35696,8.26253 -14.82269,14.40235 -5.17537,7.11549 -7.70617,9.40203 -13.18028,11.90815 -6.64802,3.04358 -17.09279,4.57975 -22.78728,3.35148 z"
       style="fill:#c57927" />
    <path
       inkscape:connector-curvature="0"
       id="path3361"
       d="m 396.85229,461.00615 c -1.58391,-0.34164 -3.37707,-1.92898 -3.9848,-3.5274 -0.81083,-2.13267 -2.46068,-3.13529 -6.19826,-3.76675 -2.80133,-0.47328 -10.00817,-3.32972 -16.01521,-6.34764 -9.24939,-4.64687 -11.78325,-6.62803 -16.54688,-12.93759 -5.89168,-7.8037 -9.45087,-9.66317 -15.56084,-8.12967 -6.16354,1.54695 -15.65236,-10.4232 -15.68219,-19.78309 -0.009,-2.84312 2.0867,-2.76245 8.11803,0.3125 8.89962,4.53729 9.37369,4.07948 9.38455,-9.0625 0.0105,-12.77552 2.7791,-24.21154 7.54788,-31.17799 4.68129,-6.83863 9.67166,-9.81355 8.08708,-4.82097 -1.14194,3.59792 1.69697,12.83004 4.78947,15.57536 1.48006,1.3139 4.37852,3.94652 6.44102,5.85027 2.0625,1.90375 4.59375,3.64124 5.625,3.8611 1.03125,0.21985 3.36315,1.98214 5.18201,3.9162 1.96593,2.09046 3.50588,2.91987 3.79741,2.04528 0.48427,-1.45282 6.11879,1.62626 13.71828,7.49659 4.40597,3.40345 8.05195,3.24234 10.47984,-0.46309 1.81377,-2.76817 1.81348,-3.36176 -0.003,-6.875 l -1.98849,-3.84525 3.73812,0 c 4.94525,0 6.63209,-3.14062 4.46064,-8.30498 -0.90073,-2.14219 -2.25573,-4.27687 -3.01112,-4.74373 -2.6798,-1.65621 -1.40623,-3.48054 1.85786,-2.66131 4.77909,1.19948 8.37535,-0.29114 7.625,-3.16049 -1.03764,-3.96792 2.79846,-2.79231 7.53115,2.30801 2.3923,2.57812 6.21837,7.57858 8.50236,11.11212 2.28401,3.53355 4.89444,6.88302 5.80097,7.44329 4.46218,2.75778 16.92926,-1.44212 25.19079,-8.48626 5.67721,-4.84061 7.06938,-3.7432 7.09929,5.59617 0.0466,14.57929 -12.05439,34.55553 -26.20857,43.26469 -4.0109,2.46794 -8.70643,7.1981 -13.26693,13.36481 -5.75114,7.7767 -8.30359,10.11479 -13.77835,12.62122 -6.60018,3.02166 -17.05271,4.55106 -22.73186,3.3261 z m 18.50485,-54.02658 c 0,-0.60332 -0.84375,-1.7972 -1.875,-2.65306 -1.5665,-1.30008 -1.875,-1.1196 -1.875,1.09694 0,1.52494 0.79728,2.65306 1.875,2.65306 1.03125,0 1.875,-0.49363 1.875,-1.09694 z m -25.28646,-2.88744 c -0.77259,-2.31777 -3.46354,-2.7022 -3.46354,-0.49479 0,1.08854 0.89062,1.97917 1.97917,1.97917 1.08854,0 1.75651,-0.66797 1.48437,-1.48438 z m 32.78646,-9.69185 c 0,-1.33443 -0.62539,-2.81274 -1.38975,-3.28514 -1.98198,-1.22493 -3.74579,2.16689 -2.13569,4.10695 1.93781,2.33491 3.52544,1.96482 3.52544,-0.82181 z M 403.6695,361.82651 c -1.39301,-2.79236 -1.47741,-3.75 -0.33047,-3.75 2.90923,0 6.19857,3.32526 5.38544,5.44424 -1.18469,3.08727 -2.96778,2.48964 -5.05497,-1.69424 z"
       style="fill:#956852" />
    <path
       inkscape:connector-curvature="0"
       id="path3359"
       d="m 396.84715,459.58574 c -1.01856,-0.69859 -1.34014,-2.29614 -0.85294,-4.23729 0.76189,-3.03562 0.54116,-3.14973 -8.56481,-4.4275 -6.10844,-0.85717 -12.52578,-2.86227 -18.52205,-5.78726 -7.55776,-3.68668 -10.14593,-5.78429 -14.68172,-11.89898 -5.72969,-7.72416 -8.81189,-9.31799 -15.50769,-8.01913 -6.06155,1.17584 -14.6108,-9.19501 -14.6108,-17.72392 0,-3.79255 -0.42085,-3.74554 5.95483,-0.66515 2.84592,1.375 6.60783,2.5 8.35979,2.5 l 3.18538,0 0,-12.27312 c 0,-12.85221 1.91845,-21.81168 6.4273,-30.01665 3.72596,-6.78029 9.70077,-10.73366 7.96721,-5.27169 -1.14194,3.59792 1.69697,12.83004 4.78947,15.57536 1.48006,1.3139 4.37852,3.94652 6.44102,5.85027 2.0625,1.90375 4.59375,3.64124 5.625,3.8611 1.03125,0.21985 3.36315,1.98214 5.18201,3.9162 1.96593,2.09046 3.50588,2.91987 3.79741,2.04528 0.48427,-1.45282 6.11879,1.62626 13.71828,7.49659 4.40597,3.40345 8.05195,3.24234 10.47984,-0.46309 1.81377,-2.76817 1.81348,-3.36176 -0.003,-6.875 l -1.98849,-3.84525 3.73812,0 c 4.94525,0 6.63209,-3.14062 4.46064,-8.30498 -0.90073,-2.14219 -2.25573,-4.27687 -3.01112,-4.74373 -2.6798,-1.65621 -1.40623,-3.48054 1.85786,-2.66131 4.77909,1.19948 8.37535,-0.29114 7.625,-3.16049 -1.03764,-3.96792 2.79846,-2.79231 7.53115,2.30801 2.3923,2.57812 6.21837,7.57858 8.50236,11.11212 2.28401,3.53355 4.89444,6.88302 5.80097,7.44329 4.46218,2.75778 16.92926,-1.44212 25.19079,-8.48626 3.944,-3.36281 4.95506,-3.74183 5.91837,-2.21865 4.27915,6.76616 -2.35852,28.64441 -12.04669,39.70687 -5.00049,5.7098 -18.99232,16.45343 -21.52914,16.53114 -0.46701,0.0143 -3.23571,3.65904 -6.15267,8.09941 -4.15836,6.3301 -6.71729,8.78979 -11.85065,11.39107 -6.86776,3.48015 -20.17606,5.33783 -23.23078,3.24274 z m 18.50999,-52.60617 c 0,-0.60332 -0.84375,-1.7972 -1.875,-2.65306 -1.5665,-1.30008 -1.875,-1.1196 -1.875,1.09694 0,1.52494 0.79728,2.65306 1.875,2.65306 1.03125,0 1.875,-0.49363 1.875,-1.09694 z m -25.28646,-2.88744 c -0.77259,-2.31777 -3.46354,-2.7022 -3.46354,-0.49479 0,1.08854 0.89062,1.97917 1.97917,1.97917 1.08854,0 1.75651,-0.66797 1.48437,-1.48438 z m 32.78646,-9.69185 c 0,-1.33443 -0.62539,-2.81274 -1.38975,-3.28514 -1.98198,-1.22493 -3.74579,2.16689 -2.13569,4.10695 1.93781,2.33491 3.52544,1.96482 3.52544,-0.82181 z M 403.6695,361.82651 c -1.39301,-2.79236 -1.47741,-3.75 -0.33047,-3.75 2.90923,0 6.19857,3.32526 5.38544,5.44424 -1.18469,3.08727 -2.96778,2.48964 -5.05497,-1.69424 z"
       style="fill:#b16b27" />
    <path
       inkscape:connector-curvature="0"
       id="path3357"
       d="m 396.84715,459.58574 c -1.01856,-0.69859 -1.34014,-2.29614 -0.85294,-4.23729 0.76189,-3.03562 0.54116,-3.14973 -8.56481,-4.4275 -6.10844,-0.85717 -12.52578,-2.86227 -18.52205,-5.78726 -7.55776,-3.68668 -10.14593,-5.78429 -14.68172,-11.89898 -5.72969,-7.72416 -8.81189,-9.31799 -15.50769,-8.01913 -6.06155,1.17584 -14.6108,-9.19501 -14.6108,-17.72392 0,-3.823 0.39157,-3.87466 4.77944,-0.63057 1.88551,1.39402 5.51898,2.87387 8.07438,3.28855 l 4.64618,0.75398 0.10021,-13.60106 c 0.1134,-15.38988 2.69205,-25.77693 6.58299,-26.51689 1.78502,-0.33947 2.13466,0.10783 1.54255,1.97339 -0.56632,1.78432 1.1609,4.51483 6.63446,10.48826 6.75414,7.37095 20.41112,17.32919 23.7657,17.32919 0.75575,0 1.37409,1.62518 1.37409,3.61152 0,1.98634 1.0301,4.88363 2.2891,6.43844 2.87229,3.54712 7.753,2.66767 10.16052,-1.83082 1.56872,-2.93119 1.84745,-3.00044 5.1672,-1.28373 1.92997,0.99802 4.27493,1.81459 5.21103,1.81459 0.9361,0 2.94963,1.6875 4.4745,3.75 3.25877,4.40772 5.21259,4.68658 8.37246,1.19496 1.9819,-2.18998 2.12249,-3.26613 0.98391,-7.53181 -1.27051,-4.75999 -1.21306,-4.94 1.31895,-4.13264 5.21185,1.66187 6.38729,1.19678 6.76737,-2.67764 0.20352,-2.07467 -0.50715,-5.87155 -1.57927,-8.4375 -1.48546,-3.55519 -2.66533,-4.66537 -4.95823,-4.66537 -2.33504,0 -3.19565,-0.85024 -3.84274,-3.79645 -0.70182,-3.19536 -0.27608,-4.2344 2.68896,-6.5625 1.93754,-1.52133 4.0962,-2.57908 4.79702,-2.35057 0.70082,0.22852 -0.0894,-1.03711 -1.75617,-2.8125 -1.78521,-1.90161 -2.36811,-3.22798 -1.41859,-3.22798 2.14348,0 9.31468,7.83351 14.46379,15.79962 4.98613,7.71395 6.21238,8.5685 11.62614,8.10208 6.00476,-0.51734 12.5157,-3.51999 18.21965,-8.40236 2.73041,-2.33714 5.42565,-4.24934 5.9894,-4.24934 1.8553,0 1.09531,16.00032 -0.99248,20.89509 -5.57315,13.06607 -7.01085,15.65718 -11.38108,20.51181 -2.59954,2.88766 -7.82019,7.23185 -11.60144,9.65377 -8.4215,5.39402 -8.29588,5.26776 -14.80544,14.88071 -4.02726,5.94722 -6.8447,8.60269 -11.78191,11.10457 -6.81193,3.45186 -20.13176,5.29888 -23.17264,3.21328 z m 19.75999,-25.958 c 0,-0.99068 -0.84375,-1.80123 -1.875,-1.80123 -1.88279,0 -2.5696,2.63874 -1.07565,4.13268 1.16655,1.16656 2.95065,-0.24315 2.95065,-2.33145 z m -9.91638,-10.70748 c 1.76069,-3.28988 -0.64211,-8.59375 -3.89319,-8.59375 -3.05623,0 -5.76273,6.87804 -3.68949,9.37613 2.23235,2.68981 5.92853,2.30844 7.58268,-0.78238 z m 20.54829,1.39506 c 0.4287,-0.69365 0.40409,-2.44387 -0.0547,-3.88938 -0.74968,-2.36204 -1.02834,-2.43402 -2.75161,-0.71074 -1.0546,1.0546 -1.57694,2.80482 -1.16076,3.88938 0.85864,2.23758 2.80763,2.58676 3.96708,0.71074 z m 9.79392,-13.60826 c -0.37053,-7.7274 -5.42583,-8.55673 -5.42583,-0.89011 0,4.66343 0.91834,6.01888 3.68905,5.44499 1.33148,-0.27578 1.87376,-1.69798 1.73678,-4.55488 z m -5.74044,-21.69305 c -0.32014,-0.85938 -1.3257,-3.64041 -2.23456,-6.18008 -1.47743,-4.12841 -1.82298,-4.39325 -3.2619,-2.5 -2.40566,3.16523 -2.02089,5.95609 1.12357,8.14955 3.44561,2.40354 5.14757,2.61002 4.37289,0.53053 z m -79.68539,-24.6875 c 0,-0.6875 0.5957,-1.25 1.32377,-1.25 0.72807,0 0.97613,0.5625 0.55123,1.25 -0.4249,0.6875 -1.0206,1.25 -1.32377,1.25 -0.30318,0 -0.55123,-0.5625 -0.55123,-1.25 z"
       style="fill:#ac7014" />
    <path
       inkscape:connector-curvature="0"
       id="path3355"
       d="m 396.84715,459.58574 c -1.01856,-0.69859 -1.34014,-2.29614 -0.85294,-4.23729 0.76189,-3.03562 0.54116,-3.14973 -8.56481,-4.4275 -6.10844,-0.85717 -12.52578,-2.86227 -18.52205,-5.78726 -7.55776,-3.68668 -10.14593,-5.78429 -14.68172,-11.89898 -5.72969,-7.72416 -8.81189,-9.31799 -15.50769,-8.01913 -6.06155,1.17584 -14.6108,-9.19501 -14.6108,-17.72392 0,-3.823 0.39157,-3.87466 4.77944,-0.63057 1.88551,1.39402 5.51898,2.87387 8.07438,3.28855 l 4.64618,0.75398 0.0135,-12.97606 c 0.012,-11.49117 1.76547,-21.90064 4.40998,-26.17955 0.4216,-0.68216 2.18321,0.88456 3.91468,3.4816 4.9734,7.45965 14.0011,16.14236 21.76859,20.93673 3.92977,2.42559 7.76338,4.41017 8.51913,4.41017 0.75575,0 1.37409,1.62518 1.37409,3.61152 0,1.98634 1.0301,4.88363 2.2891,6.43844 2.87229,3.54712 7.753,2.66767 10.16052,-1.83082 1.56872,-2.93119 1.84745,-3.00044 5.1672,-1.28373 1.92997,0.99802 4.27493,1.81459 5.21103,1.81459 0.9361,0 2.94963,1.6875 4.4745,3.75 3.25877,4.40772 5.21259,4.68658 8.37246,1.19496 1.9819,-2.18998 2.12249,-3.26613 0.98391,-7.53181 -1.27051,-4.75999 -1.21306,-4.94 1.31895,-4.13264 5.21185,1.66187 6.38729,1.19678 6.76737,-2.67764 0.20352,-2.07467 -0.50715,-5.87155 -1.57927,-8.4375 -1.48546,-3.55519 -2.66533,-4.66537 -4.95823,-4.66537 -2.32302,0 -3.19558,-0.84993 -3.82783,-3.72858 -0.67798,-3.08681 -0.21099,-4.25739 2.71318,-6.80096 3.47622,-3.02378 3.57043,-3.03469 5.95404,-0.68978 2.12502,2.09053 2.21958,2.76069 0.7714,5.46664 -2.05925,3.84774 -1.30683,5.91741 2.98659,8.21518 2.79846,1.49769 3.53093,1.51662 4.39799,0.1137 1.00529,-1.62661 4.05568,2.20622 8.64404,10.8613 2.27445,4.29031 5.80746,3.44475 16.97444,-4.0625 5.62458,-3.78125 10.68355,-6.875 11.24215,-6.875 1.54705,0 0.0134,8.54835 -2.92556,16.30612 -2.96764,7.83359 -12.75302,19.56822 -19.84578,23.79906 -6.05261,3.61039 -8.65095,6.337 -15.09125,15.8362 -4.02935,5.94315 -6.85447,8.60441 -11.7883,11.10457 -6.81193,3.45186 -20.13176,5.29888 -23.17264,3.21328 z m 19.75999,-25.958 c 0,-0.99068 -0.84375,-1.80123 -1.875,-1.80123 -1.88279,0 -2.5696,2.63874 -1.07565,4.13268 1.16655,1.16656 2.95065,-0.24315 2.95065,-2.33145 z m -9.91638,-10.70748 c 1.76069,-3.28988 -0.64211,-8.59375 -3.89319,-8.59375 -3.05623,0 -5.76273,6.87804 -3.68949,9.37613 2.23235,2.68981 5.92853,2.30844 7.58268,-0.78238 z m 20.54829,1.39506 c 0.4287,-0.69365 0.40409,-2.44387 -0.0547,-3.88938 -0.74968,-2.36204 -1.02834,-2.43402 -2.75161,-0.71074 -1.0546,1.0546 -1.57694,2.80482 -1.16076,3.88938 0.85864,2.23758 2.80763,2.58676 3.96708,0.71074 z m 10.49322,-11.00547 c 1.48942,-2.78302 -0.95331,-8.35834 -3.66204,-8.35834 -1.92388,0 -3.18828,5.68221 -1.97054,8.85559 0.95449,2.48734 4.18804,2.20188 5.63258,-0.49725 z"
       style="fill:#8e5027" />
    <path
       inkscape:connector-curvature="0"
       id="path3353"
       d="m 396.60714,455.051 c 0,-2.80379 -0.60058,-3.08983 -8.19532,-3.90315 -12.66975,-1.35682 -26.42136,-8.51529 -32.93743,-17.14576 -2.81448,-3.72776 -5.11725,-7.36416 -5.11725,-8.08088 0,-2.80609 -10.99154,-3.84416 -13.57656,-1.2822 -2.29665,2.27617 -10.97891,-7.29678 -12.11622,-13.35919 -1.1146,-5.9413 -0.0356,-6.82335 3.8647,-3.15923 2.49558,2.34448 5.16033,3.16148 12.64271,3.87619 9.53635,0.91091 16.94701,-0.42073 14.70142,-2.64173 -0.62758,-0.6207 -3.95355,-1.30292 -7.39105,-1.51605 l -6.25,-0.38749 -0.38099,-5.9375 c -0.42954,-6.69415 0.49355,-7.23255 5.09259,-2.97031 1.95826,1.81486 5.54864,3.30867 9.24503,3.84648 3.32385,0.48361 7.90365,1.96087 10.17732,3.28281 2.27367,1.32193 4.94927,2.40352 5.94577,2.40352 0.9965,0 3.07372,1.48107 4.61605,3.29128 5.30423,6.22547 6.12276,6.70872 11.36337,6.70872 4.9626,0 5.39312,0.29614 7.72321,5.3125 1.93811,4.17247 3.22904,5.39967 6.01569,5.71869 4.05873,0.46466 8.32696,-2.72611 8.32696,-6.22493 0,-1.58058 0.91474,-2.30626 2.90711,-2.30626 3.55762,0 7.97486,-4.52279 8.54581,-8.75 0.29955,-2.21783 1.23145,-3.16583 3.21018,-3.26566 2.21153,-0.11157 2.94942,0.71932 3.56825,4.01796 0.87032,4.6392 2.10181,5.98575 7.27206,7.95147 l 3.54649,1.34838 -0.79122,-7.21358 c -1.48604,-13.54805 -1.70951,-14.71855 -3.73306,-19.55373 -4.07172,-9.72923 -1.59222,-9.07619 4.23949,1.11657 2.7585,4.82137 4.68227,6.84859 6.49907,6.84859 1.41938,0 7.18263,-3.09375 12.80721,-6.875 5.62458,-3.78125 10.68355,-6.875 11.24215,-6.875 1.54705,0 0.0134,8.54835 -2.92557,16.30612 -3.17158,8.37195 -12.7919,19.53589 -21.39776,24.83113 -3.43211,2.1118 -6.24065,3.42296 -6.2412,2.91369 -5.4e-4,-0.50927 -1.14612,1.38749 -2.54575,4.21502 -3.81137,7.69974 -11.05684,15.5366 -16.7585,18.12638 -3.40453,1.54638 -8.04645,2.31177 -14.13226,2.33021 -8.76142,0.0265 -9.0625,-0.073 -9.0625,-2.99806 z m 8.75,-9.94643 c 0,-1.63457 -0.87198,-3.69563 -1.93773,-4.58013 -2.70213,-2.24256 -6.16775,1.17518 -4.98151,4.91269 1.24749,3.93048 6.91924,3.65787 6.91924,-0.33256 z m 12.99126,-2.75529 c 1.98055,-5.16122 -0.18627,-13.02277 -3.58936,-13.02277 -0.96808,0 -2.59592,1.19324 -3.61743,2.65165 -2.11853,3.02462 -0.87304,8.1214 2.63573,10.78585 2.70877,2.05696 3.65555,1.97106 4.57106,-0.41473 z m 21.58659,-15.83527 c -0.34676,-0.85938 -0.63049,-0.15625 -0.63049,1.5625 0,1.71875 0.28373,2.42187 0.63049,1.5625 0.34676,-0.85938 0.34676,-2.26563 0,-3.125 z m -9.82729,-1.65864 c 0.42583,-4.36095 -3.45633,-10.22628 -5.80701,-8.77348 -0.80373,0.49673 -2.31815,2.56006 -3.36538,4.58517 -2.72044,5.26076 -0.61202,8.94592 4.81738,8.41995 3.42772,-0.33205 4.03152,-0.91875 4.35501,-4.23164 z m -0.2127,-25.84136 c -1.52888,-5.70499 0.37492,-6.74164 2.7615,-1.50368 1.8386,4.03529 1.82046,4.31618 -0.27857,4.31618 -0.95107,0 -2.06839,-1.26563 -2.48293,-2.8125 z m -83.28786,-26.01127 c 0,-0.72808 0.5625,-0.97613 1.25,-0.55123 0.6875,0.4249 1.25,1.02059 1.25,1.32377 0,0.30318 -0.5625,0.55123 -1.25,0.55123 -0.6875,0 -1.25,-0.5957 -1.25,-1.32377 z"
       style="fill:#90570e" />
    <path
       inkscape:connector-curvature="0"
       id="path3351"
       d="m 396.60714,455.051 c 0,-2.80379 -0.60058,-3.08983 -8.19532,-3.90315 -12.66975,-1.35682 -26.42136,-8.51529 -32.93743,-17.14576 -2.81448,-3.72776 -5.11725,-7.36416 -5.11725,-8.08088 0,-2.80609 -10.99154,-3.84416 -13.57656,-1.2822 -2.29665,2.27617 -10.97891,-7.29678 -12.11622,-13.35919 -1.1146,-5.9413 -0.0356,-6.82335 3.8647,-3.15923 2.49558,2.34448 5.16033,3.16148 12.64271,3.87619 9.53635,0.91091 16.94701,-0.42073 14.70142,-2.64173 -0.62758,-0.6207 -3.95355,-1.30292 -7.39105,-1.51605 l -6.25,-0.38749 -0.38099,-5.9375 c -0.42954,-6.69415 0.49355,-7.23255 5.09259,-2.97031 1.95826,1.81486 5.54864,3.30867 9.24503,3.84648 3.32385,0.48361 7.90365,1.96087 10.17732,3.28281 2.27367,1.32193 4.94927,2.40352 5.94577,2.40352 0.9965,0 3.07372,1.48107 4.61605,3.29128 5.30423,6.22547 6.12276,6.70872 11.36337,6.70872 4.9626,0 5.39312,0.29614 7.72321,5.3125 1.93811,4.17247 3.22904,5.39967 6.01569,5.71869 4.05873,0.46466 8.32696,-2.72611 8.32696,-6.22493 0,-1.58058 0.91474,-2.30626 2.90711,-2.30626 3.55762,0 7.97486,-4.52279 8.54581,-8.75 0.67626,-5.00695 5.11736,-4.20693 6.74823,1.21562 0.96073,3.19436 2.59682,5.04052 5.9375,6.69983 4.19341,2.08286 4.61135,2.75515 4.61135,7.41784 0,6.20197 -3.42279,13.62409 -9.6237,20.86846 -6.28398,7.34143 -12.57041,9.98674 -23.8138,10.0208 -8.76142,0.0265 -9.0625,-0.0731 -9.0625,-2.99806 z m 8.75,-9.94643 c 0,-1.63457 -0.87198,-3.69563 -1.93773,-4.58013 -2.70213,-2.24256 -6.16775,1.17518 -4.98151,4.91269 1.24749,3.93048 6.91924,3.65787 6.91924,-0.33256 z m 12.99126,-2.75529 c 1.98055,-5.16122 -0.18627,-13.02277 -3.58936,-13.02277 -0.96808,0 -2.59592,1.19324 -3.61743,2.65165 -2.11853,3.02462 -0.87304,8.1214 2.63573,10.78585 2.70877,2.05696 3.65555,1.97106 4.57106,-0.41473 z m 11.7593,-17.49391 c 0.42583,-4.36095 -3.45633,-10.22628 -5.80701,-8.77348 -0.80373,0.49673 -2.31815,2.56006 -3.36538,4.58517 -2.72044,5.26076 -0.61202,8.94592 4.81738,8.41995 3.42772,-0.33205 4.03152,-0.91875 4.35501,-4.23164 z m -0.2127,-25.84136 c -1.52888,-5.70499 0.37492,-6.74164 2.7615,-1.50368 1.8386,4.03529 1.82046,4.31618 -0.27857,4.31618 -0.95107,0 -2.06839,-1.26563 -2.48293,-2.8125 z"
       style="fill:#7b432c" />
    <path
       inkscape:connector-curvature="0"
       id="path3349"
       d="m 400.35714,455.84316 c 0,-0.52796 1.6875,-2.4407 3.75,-4.25051 4.37684,-3.8406 4.84253,-8.14879 1.34471,-12.44016 l -2.40529,-2.95098 -4.44346,2.3702 c -2.44391,1.30362 -4.76443,3.38146 -5.15671,4.61744 -0.61886,1.94986 -2.06966,2.21515 -10.96375,2.00479 -10.07806,-0.23835 -10.24476,-0.29389 -9.90905,-3.30149 0.1878,-1.68248 1.45342,-4.09502 2.8125,-5.36119 2.73296,-2.54615 3.10725,-4.16401 1.23153,-5.32328 -1.24211,-0.76766 -5.0651,2.7667 -8.97039,8.29314 -2.64164,3.73823 -4.98562,2.5225 -10.85249,-5.62876 l -4.1874,-5.81785 2.9374,-2.3814 c 1.61557,-1.30977 2.65615,-2.64186 2.3124,-2.9602 -1.19106,-1.10302 -21.35726,-1.72413 -22.00398,-0.67771 -1.29024,2.08765 -9.19585,-5.45256 -10.4396,-9.95707 -0.68126,-2.46733 -0.98797,-4.73674 -0.68156,-5.04315 0.3064,-0.3064 2.50362,0.9276 4.88271,2.74222 3.85545,2.94069 5.43059,3.29931 14.49121,3.29931 10.71212,0 15.00122,-1.3022 15.00122,-4.55449 0,-1.50775 0.80195,-1.77813 3.4375,-1.15896 3.75078,0.88117 7.13896,4.28863 10.79367,10.85509 1.32946,2.38867 2.6004,3.5525 2.91666,2.67086 1.14211,-3.18386 4.10217,-1.6054 4.10217,2.1875 0,4.17723 -0.087,4.14517 6.87318,2.53175 4.63246,-1.07384 5.24467,-0.88873 8.36703,2.52982 2.2479,2.46113 4.57426,3.68843 6.99147,3.68843 3.11323,0 3.82323,0.66963 5.04944,4.76236 1.6956,5.6594 6.57981,10.64748 9.79487,10.00316 1.96335,-0.39348 2.28597,-1.65937 2.2097,-8.67031 l -0.0893,-8.20956 3.4387,1.29796 c 4.87315,1.83941 9.86492,-0.58024 9.86492,-4.78181 0,-3.43692 1.16505,-3.98675 3.5,-1.6518 2.1315,2.13149 1.8205,5.7977 -1.02345,12.06507 -3.36054,7.40581 -9.44506,14.84589 -14.11663,17.26164 -4.00346,2.07028 -20.85992,3.6379 -20.85992,1.93994 z"
       style="fill:#6b3126" />
  </g>
</svg>
